<?xml version="1.0" standalone="no"?>
<!DOCTYPE svg PUBLIC "-//W3C//DTD SVG 20010904//EN"
 "http://www.w3.org/TR/2001/REC-SVG-20010904/DTD/svg10.dtd">
<svg version="1.0" xmlns="http://www.w3.org/2000/svg"
 width="115.000000pt" height="89.000000pt" viewBox="0 0 115.000000 89.000000"
 preserveAspectRatio="xMidYMid meet">

<g transform="translate(0.000000,89.000000) scale(0.100000,-0.100000)"
fill="#fff" stroke="none">
<path d="M317 706 c-97 -27 -176 -109 -177 -182 0 -73 72 -162 151 -185 22 -7
58 -33 89 -65 29 -30 57 -54 62 -54 6 0 7 20 3 48 l-6 48 55 11 c81 17 143 63
173 130 23 50 24 59 14 95 -16 51 -71 111 -126 138 -56 27 -172 35 -238 16z"/>
<path d="M715 604 c18 -72 17 -131 -3 -171 -22 -42 -88 -107 -128 -125 -13 -6
-24 -14 -24 -18 0 -12 82 -50 122 -56 47 -8 53 -19 39 -70 -6 -21 -8 -40 -5
-43 2 -3 31 21 63 53 32 31 82 69 112 82 66 31 86 48 110 96 66 128 -41 258
-227 275 l-67 6 8 -29z"/>
</g>
</svg>
